<svg width="24" height="24" viewBox="0 0 24 24" fill="none" xmlns="http://www.w3.org/2000/svg">
<path fill-rule="evenodd" clip-rule="evenodd" d="M15.022 3.34297C15.53 3.25597 16.099 3.22697 16.635 3.31797C17.5898 3.47924 18.4744 3.9226 19.175 4.59097C19.631 4.60097 20.08 4.51097 20.477 4.38297C20.8606 4.25752 21.2289 4.08947 21.575 3.88197L21.584 3.87597C21.728 3.78002 21.9008 3.73682 22.073 3.75369C22.2452 3.77055 22.4063 3.84645 22.5289 3.96851C22.6516 4.09057 22.7282 4.25129 22.7459 4.42342C22.7636 4.59555 22.7213 4.76851 22.626 4.91297C22.419 5.22797 22.13 5.78997 21.807 6.41997L21.652 6.72097C21.467 7.08097 21.277 7.44497 21.1 7.75697C20.989 7.95297 20.87 8.15197 20.75 8.32397V8.59797C20.7623 10.2366 20.4481 11.8613 19.8258 13.3772C19.2034 14.8931 18.2854 16.2699 17.1252 17.4271C15.965 18.5844 14.586 19.499 13.0685 20.1176C11.5511 20.7362 9.92561 21.0463 8.28701 21.03C5.91229 21.0333 3.58739 20.3491 1.59301 19.06C1.44984 18.968 1.3422 18.83 1.28779 18.6688C1.23337 18.5076 1.23541 18.3326 1.29357 18.1727C1.35172 18.0127 1.46254 17.8773 1.60782 17.7887C1.75309 17.7001 1.92419 17.6635 2.09301 17.685C2.39301 17.7216 2.69468 17.74 2.99801 17.74C4.07864 17.736 5.14566 17.4986 6.12601 17.044C5.51191 16.7646 4.9627 16.3604 4.51335 15.8572C4.06399 15.3539 3.72434 14.7627 3.51601 14.121C3.47631 13.9981 3.46898 13.8672 3.49474 13.7407C3.52049 13.6142 3.57845 13.4965 3.66301 13.399L3.67301 13.389C3.16562 12.9368 2.75894 12.3829 2.47934 11.7635C2.19974 11.144 2.05347 10.4726 2.05001 9.79297V9.73997C2.04994 9.57532 2.10404 9.41522 2.20398 9.28438C2.30392 9.15354 2.44414 9.05921 2.60301 9.01597C2.26454 8.34061 2.08885 7.5954 2.09001 6.83997C2.08944 5.98314 2.31356 5.14114 2.74001 4.39797C2.8006 4.29247 2.88594 4.20329 2.98867 4.13813C3.09141 4.07297 3.20845 4.03378 3.32971 4.02394C3.45097 4.01409 3.5728 4.0339 3.6847 4.08164C3.7966 4.12938 3.8952 4.20362 3.97201 4.29797C5.72186 6.45211 8.22752 7.85766 10.978 8.22797C10.9541 7.32815 11.1811 6.43944 11.6336 5.6613C12.0861 4.88316 12.7462 4.24629 13.54 3.82197C13.942 3.60797 14.474 3.43697 15.022 3.34297ZM3.74201 10.891C3.9362 11.4375 4.26895 11.9242 4.7077 12.3036C5.14645 12.6829 5.67617 12.9418 6.24501 13.055C6.4089 13.0876 6.55719 13.1741 6.66635 13.3006C6.77551 13.4271 6.83928 13.5865 6.84755 13.7534C6.85582 13.9203 6.80812 14.0852 6.712 14.2219C6.61588 14.3586 6.47687 14.4593 6.31701 14.508C6.04434 14.5906 5.76634 14.6483 5.48301 14.681C5.79035 15.0772 6.18249 15.3996 6.63065 15.6245C7.07882 15.8495 7.57165 15.9713 8.07301 15.981C8.22766 15.9839 8.37764 16.0345 8.50238 16.126C8.62712 16.2175 8.72052 16.3453 8.7698 16.4919C8.81908 16.6385 8.82181 16.7968 8.77763 16.945C8.73345 17.0933 8.64451 17.2242 8.52301 17.32C7.47973 18.1396 6.26815 18.7184 4.97501 19.015C6.0458 19.358 7.1636 19.5318 8.28801 19.53H8.29701C9.73703 19.545 11.1656 19.273 12.4993 18.7298C13.833 18.1865 15.0451 17.383 16.0648 16.3661C17.0845 15.3492 17.8914 14.1393 18.4383 12.8071C18.9852 11.4749 19.2611 10.047 19.25 8.60697V8.07197C19.2499 7.88986 19.316 7.71391 19.436 7.57697C19.506 7.49797 19.626 7.31597 19.796 7.01697C19.956 6.73497 20.134 6.39497 20.319 6.03597L20.352 5.96997C19.8296 6.08738 19.2918 6.12013 18.759 6.06697C18.5789 6.04734 18.4119 5.96315 18.289 5.82997C17.7861 5.28465 17.1164 4.92167 16.385 4.79797C16.0161 4.74542 15.6411 4.75387 15.275 4.82297C14.9181 4.87845 14.5715 4.98734 14.247 5.14597C13.5927 5.49557 13.0729 6.05249 12.7692 6.72936C12.4655 7.40623 12.3951 8.16476 12.569 8.88597C12.5964 8.99937 12.5969 9.1176 12.5706 9.23125C12.5442 9.3449 12.4918 9.45085 12.4173 9.54065C12.3428 9.63046 12.2484 9.70165 12.1416 9.74858C12.0348 9.79551 11.9185 9.81687 11.802 9.81097C8.72982 9.65461 5.82542 8.36191 3.65301 6.18397C3.61075 6.40041 3.58965 6.62044 3.59001 6.84097V6.84297C3.58889 7.39371 3.72397 7.93619 3.98324 8.4221C4.2425 8.908 4.6179 9.32225 5.07601 9.62797C5.21054 9.71851 5.31209 9.85022 5.36546 10.0033C5.41883 10.1565 5.42113 10.3228 5.37201 10.4773C5.3229 10.6319 5.22503 10.7663 5.09305 10.8605C4.96108 10.9548 4.80213 11.0037 4.64001 11C4.3383 10.9905 4.03808 10.9536 3.74301 10.89" fill="white"/>
</svg>
